HIERARCHY
ROOT Hips
{
	OFFSET 0.00000 0.00000 0.00000
	CHANNELS 6 Xposition Yposition Zposition Zrotation Yrotation Xrotation 
	JOINT LHipJoint
	{
		OFFSET 0 0 0
		CHANNELS 3 Zrotation Yrotation Xrotation
		JOINT LeftUpLeg
		{
			OFFSET 1.85742 -1.74412 1.01653
			CHANNELS 3 Zrotation Yrotation Xrotation
			JOINT LeftLeg
			{
				OFFSET 2.54803 -7.00067 0.00000
				CHANNELS 3 Zrotation Yrotation Xrotation
				JOINT LeftFoot
				{
					OFFSET 2.51202 -6.90173 0.00000
					CHANNELS 3 Zrotation Yrotation Xrotation
					JOINT LeftToeBase
					{
						OFFSET 0.17547 -0.48209 1.64281
						CHANNELS 3 Zrotation Yrotation Xrotation
						End Site
						{
							OFFSET 0.00000 -0.00000 0.86587
						}
					}
				}
			}
		}
	}
	JOINT RHipJoint
	{
		OFFSET 0 0 0
		CHANNELS 3 Zrotation Yrotation Xrotation
		JOINT RightUpLeg
		{
			OFFSET -1.95533 -1.74413 1.01654
			CHANNELS 3 Zrotation Yrotation Xrotation
			JOINT RightLeg
			{
				OFFSET -2.49465 -6.85400 0.00000
				CHANNELS 3 Zrotation Yrotation Xrotation
				JOINT RightFoot
				{
					OFFSET -2.54783 -7.00010 0.00000
					CHANNELS 3 Zrotation Yrotation Xrotation
					JOINT RightToeBase
					{
						OFFSET -0.18513 -0.50864 1.69288
						CHANNELS 3 Zrotation Yrotation Xrotation
						End Site
						{
							OFFSET -0.00000 -0.00000 0.89242
						}
					}
				}
			}
		}
	}
	JOINT LowerBack
	{
		OFFSET 0 0 0
		CHANNELS 3 Zrotation Yrotation Xrotation
		JOINT Spine
		{
			OFFSET 0.02173 2.16290 -0.15998
			CHANNELS 3 Zrotation Yrotation Xrotation
			JOINT Spine1
			{
				OFFSET 0.00940 2.17323 -0.00467
				CHANNELS 3 Zrotation Yrotation Xrotation
				JOINT Neck
				{
					OFFSET 0 0 0
					CHANNELS 3 Zrotation Yrotation Xrotation
					JOINT Neck1
					{
						OFFSET 0.01475 1.85823 0.31113
						CHANNELS 3 Zrotation Yrotation Xrotation
						JOINT Head
						{
							OFFSET 0.01902 1.88783 -0.37187
							CHANNELS 3 Zrotation Yrotation Xrotation
							End Site
							{
								OFFSET 0.00489 1.93211 -0.16169
							}
						}
					}
				}
				JOINT LeftShoulder
				{
					OFFSET 0 0 0
					CHANNELS 3 Zrotation Yrotation Xrotation
					JOINT LeftArm
					{
						OFFSET 3.34199 1.32384 -0.07862
						CHANNELS 3 Zrotation Yrotation Xrotation
						JOINT LeftForeArm
						{
							OFFSET 5.27950 -0.00000 0.00000
							CHANNELS 3 Zrotation Yrotation Xrotation
							JOINT LeftHand
							{
								OFFSET 3.53504 -0.00000 0.00000
								CHANNELS 3 Zrotation Yrotation Xrotation
								JOINT LeftFingerBase
								{
									OFFSET 0 0 0
									CHANNELS 3 Zrotation Yrotation Xrotation
									JOINT LeftHandIndex1
									{
										OFFSET 0.66795 -0.00000 0.00000
										CHANNELS 3 Zrotation Yrotation Xrotation
										End Site
										{
											OFFSET 0.53852 -0.00000 0.00000
										}
									}
								}
								JOINT LThumb
								{
									OFFSET 0 0 0
									CHANNELS 3 Zrotation Yrotation Xrotation
									End Site
									{
										OFFSET 0.54674 -0.00000 0.54674
									}
								}
							}
						}
					}
				}
				JOINT RightShoulder
				{
					OFFSET 0 0 0
					CHANNELS 3 Zrotation Yrotation Xrotation
					JOINT RightArm
					{
						OFFSET -3.16149 1.45719 -0.50507
						CHANNELS 3 Zrotation Yrotation Xrotation
						JOINT RightForeArm
						{
							OFFSET -5.25035 -0.00000 0.00000
							CHANNELS 3 Zrotation Yrotation Xrotation
							JOINT RightHand
							{
								OFFSET -3.58884 -0.00000 0.00000
								CHANNELS 3 Zrotation Yrotation Xrotation
								JOINT RightFingerBase
								{
									OFFSET 0 0 0
									CHANNELS 3 Zrotation Yrotation Xrotation
									JOINT RightHandIndex1
									{
										OFFSET -0.77924 -0.00000 0.00000
										CHANNELS 3 Zrotation Yrotation Xrotation
										End Site
										{
											OFFSET -0.62824 -0.00000 0.00000
										}
									}
								}
								JOINT RThumb
								{
									OFFSET 0 0 0
									CHANNELS 3 Zrotation Yrotation Xrotation
									End Site
									{
										OFFSET -0.63783 -0.00000 0.63783
									}
								}
							}
						}
					}
				}
			}
		}
	}
}
MOTION
Frames: 16
Frame Time: .0083333
6.0297 17.4521 -11.6569 0 0 0 0 0 0 -21 0 0 0 0 0 0 0 0 0 0 0 0 0 0 21 0 0 0 0 0 0 0 0 0 0 0 0 0 0 0 0 0 0 0 0 0 0 -16 0 0 21 0 0 11 0 0 0 -8 0 0 0 0 0 0 0 0 0 0 0 0 0 0 0 0 0 0 0 0 8 0 0 0 0 0 0 0 0 0 0 0 0 0 0 0 0 0
6.0297 17.4521 -11.6569 -4.4459 2.4019 3.9725 0.0000 0.0000 0.0000 -10.8910 -13.0951 -9.2694 2.2623 9.3923 27.0305 0.7336 2.7841 -17.4215 0.8115 -5.7487 -16.0570 0.0000 0.0000 0.0000 24.0139 -5.0326 3.5724 0.0000 -0.0000 0.0000 0.1421 -10.5171 -12.4968 -0.3205 3.6392 -10.0638 3.2452 1.6227 2.0607 0.7094 2.2932 -1.6590 -1.1873 1.0874 -2.7630 4.0521 3.4769 -23.2290 0.4991 3.2996 27.1679 0.1049 1.9594 13.0446 0.0000 -0.0000 0.0000 -85.4039 5.4019 37.8699 17.7677 -27.8587 -4.4402 -0.0000 0.0000 -27.8890 33.5574 54.1600 28.2682 -7.1250 0.0000 -0.0000 -79.7127 84.6772 -74.4101 0.0000 -0.0000 0.0000 86.9807 -2.1715 25.2663 -12.7793 20.9630 -2.3737 0.0000 -0.0000 -9.6344 -21.6102 12.4030 -4.8633 7.1250 -0.0000 -0.0000 3.9068 -16.6912 2.6263
6.0294 17.4466 -11.6577 -4.4045 2.3232 3.8773 0.0000 0.0000 0.0000 -10.9651 -12.9247 -9.1561 2.2490 9.3666 26.9489 0.7903 2.5037 -17.8793 1.1455 -6.7962 -19.1131 0.0000 0.0000 0.0000 23.9344 -5.0033 3.6947 0.0000 0.0000 -0.0000 0.1326 -10.4092 -12.4998 -0.3271 3.6757 -10.1661 3.1680 1.6330 2.1836 0.7067 2.3079 -1.6041 -1.1506 1.0964 -2.7777 4.0725 3.4842 -23.1753 0.4869 3.3084 27.0554 0.0961 1.9629 12.9885 -0.0000 -0.0000 0.0000 -85.4453 5.3565 37.7996 17.7848 -27.8808 -4.4482 -0.0000 0.0000 -27.8221 33.7203 54.1130 28.4016 -7.1250 0.0000 -0.0000 -79.5837 84.7485 -74.3549 -0.0000 -0.0000 0.0000 86.9534 -2.1783 25.8363 -12.9185 21.1676 -2.4238 0.0000 -0.0000 -10.6929 -26.6476 18.4607 -9.0287 7.1250 -0.0000 -0.0000 0.9608 -9.5010 0.7891
6.0292 17.4457 -11.6557 -4.3381 2.2102 3.8452 0.0000 0.0000 0.0000 -11.0545 -12.8397 -9.0858 2.2415 9.3519 26.9024 0.8562 2.2227 -18.4177 1.4353 -7.5747 -21.4295 0.0000 0.0000 0.0000 23.8299 -4.9176 3.7702 0.0000 -0.0000 0.0000 0.1222 -10.2899 -12.5048 -0.3328 3.7073 -10.2546 3.0517 1.6626 2.2260 0.6898 2.3438 -1.5729 -1.1054 1.1168 -2.7716 4.1622 3.4660 -23.1239 0.4163 3.2725 27.0038 0.0459 1.9463 12.9599 0.0000 -0.0000 0.0000 -85.4219 5.3344 37.7646 17.8193 -27.9252 -4.4643 -0.0000 0.0000 -27.8045 33.6689 54.0930 28.3490 -7.1250 0.0000 -0.0000 -79.2509 84.7310 -74.0088 0.0000 -0.0000 0.0000 86.9710 -2.1720 26.3707 -13.0528 21.3646 -2.4725 0.0000 -0.0000 -11.7031 -22.4893 27.7038 -10.8943 7.1250 -0.0000 -0.0000 4.6178 -0.4542 4.5960
6.0304 17.4465 -11.6536 -4.2903 2.1543 3.8389 0.0000 0.0000 0.0000 -11.1216 -12.8307 -9.0459 2.2383 9.3456 26.8826 0.9233 1.9469 -18.9533 1.7097 -8.2333 -23.4249 0.0000 0.0000 0.0000 23.7598 -4.8706 3.7947 0.0000 0.0000 -0.0000 0.1228 -10.2703 -12.4582 -0.3391 3.7419 -10.3518 2.9699 1.6744 2.2539 0.6756 2.3569 -1.5518 -1.0755 1.1250 -2.7675 4.1578 3.4716 -23.1294 0.4846 3.2602 27.0369 0.0714 1.9503 12.9731 -0.0000 -0.0000 0.0000 -85.3973 5.3054 37.6973 17.8559 -27.9723 -4.4814 -0.0000 0.0000 -27.7126 33.5049 54.0595 28.1904 -7.1250 0.0000 -0.0000 -78.5302 84.6701 -73.2367 -0.0000 -0.0000 0.0000 86.9934 -2.1010 26.5699 -13.1709 21.5372 -2.5157 0.0000 -0.0000 -11.7720 -21.1602 29.9563 -10.9394 7.1250 -0.0000 -0.0000 5.6872 1.5979 5.8723
6.0316 17.4482 -11.6509 -4.3081 2.1542 3.8500 0.0000 0.0000 0.0000 -11.0970 -12.8249 -9.0475 2.2393 9.3477 26.8892 0.9798 1.6295 -19.3548 1.9520 -8.7655 -25.0644 0.0000 0.0000 0.0000 23.7791 -4.8627 3.7796 0.0000 -0.0000 0.0000 0.1298 -10.3080 -12.3823 -0.3386 3.7393 -10.3442 2.9708 1.6745 2.2620 0.6809 2.3570 -1.5364 -1.0705 1.1254 -2.7564 4.0666 3.4887 -23.1502 0.6270 3.2735 27.0723 0.1449 1.9670 12.9872 -0.0000 -0.0000 0.0000 -85.3743 5.2651 37.7723 17.8923 -28.0191 -4.4985 -0.0000 0.0000 -27.8656 34.0266 53.8806 28.6084 -7.1250 0.0000 -0.0000 -77.7460 84.9017 -72.6981 -0.0000 -0.0000 0.0000 86.9505 -1.9844 26.4843 -13.2199 21.6085 -2.5337 0.0000 -0.0000 -11.1354 -22.6878 26.5763 -10.5939 7.1250 -0.0000 -0.0000 4.3581 -1.5853 4.2483
6.0320 17.4508 -11.6475 -4.3849 2.1782 3.8951 0.0000 0.0000 0.0000 -10.9780 -12.8261 -9.0966 2.2419 9.3527 26.9049 1.1045 0.9013 -20.2067 2.5044 -9.8459 -28.4791 0.0000 0.0000 0.0000 23.8754 -4.8592 3.7238 0.0000 -0.0000 0.0000 0.1355 -10.3466 -12.3342 -0.3320 3.7031 -10.2429 3.0426 1.6616 2.2131 0.7012 2.3407 -1.5262 -1.0872 1.1168 -2.7171 3.9824 3.4929 -23.1631 0.7270 3.2793 27.0924 0.1992 1.9749 12.9943 -0.0000 -0.0000 0.0000 -85.3351 5.2274 37.9745 17.9292 -28.0664 -4.5159 -0.0000 0.0000 -28.3343 35.0733 53.5767 29.4647 -7.1250 0.0000 -0.0000 -76.7400 85.3629 -72.1708 -0.0000 -0.0000 0.0000 86.8953 -1.8157 26.3651 -13.1910 21.5664 -2.5231 0.0000 -0.0000 -10.8797 -26.3624 18.7621 -9.0568 7.1250 -0.0000 -0.0000 1.1774 -9.2206 0.9738
6.0329 17.4526 -11.6437 -4.4066 2.2255 3.9437 0.0000 0.0000 0.0000 -10.9305 -12.8569 -9.1474 2.2445 9.3578 26.9212 1.0857 0.9180 -20.0427 2.3889 -9.6330 -27.7961 0.0000 0.0000 0.0000 23.9141 -4.8828 3.6638 0.0000 0.0000 -0.0000 0.1451 -10.4281 -12.2808 -0.3240 3.6584 -10.1176 3.0724 1.6273 2.1527 0.7028 2.2934 -1.5185 -1.0981 1.0934 -2.6760 3.9499 3.5142 -23.1648 0.7734 3.3075 27.1006 0.2278 1.9904 12.9968 0.0000 0.0000 0.0000 -85.3081 5.2005 38.0247 17.9560 -28.1007 -4.5285 -0.0000 0.0000 -28.5392 35.3075 53.4362 29.6334 -7.1250 0.0000 -0.0000 -75.6038 85.4741 -71.1642 0.0000 0.0000 0.0000 86.8640 -1.6929 26.3517 -13.1764 21.5451 -2.5177 0.0000 -0.0000 -10.8922 -26.3191 18.7492 -9.0339 7.1250 -0.0000 -0.0000 1.2042 -9.2420 0.9954
6.0353 17.4538 -11.6387 -4.3357 2.2493 3.9561 0.0000 0.0000 0.0000 -11.0066 -12.8560 -9.1496 2.2461 9.3609 26.9309 1.0870 0.8375 -20.0237 2.2654 -9.3982 -27.0492 0.0000 0.0000 0.0000 23.8289 -4.9122 3.6618 0.0000 0.0000 -0.0000 0.1489 -10.4515 -12.2441 -0.3157 3.6118 -9.9871 3.0006 1.6024 2.1347 0.6828 2.2566 -1.5184 -1.0765 1.0763 -2.6690 4.0206 3.5439 -23.1255 0.7064 3.3465 27.0852 0.1962 2.0055 12.9862 -0.0000 -0.0000 0.0000 -85.2917 5.1986 38.0243 17.9666 -28.1144 -4.5335 -0.0000 0.0000 -28.6076 35.1403 53.4397 29.4822 -7.1250 0.0000 -0.0000 -75.2258 85.4040 -70.7231 -0.0000 -0.0000 0.0000 86.8305 -1.6727 26.4104 -13.2444 21.6442 -2.5427 0.0000 -0.0000 -10.8452 -26.2705 18.6852 -8.9858 7.1250 -0.0000 -0.0000 1.2290 -9.3198 1.0140
6.0377 17.4544 -11.6339 -4.3050 2.2463 3.9537 0.0000 0.0000 0.0000 -11.0393 -12.8005 -9.1490 2.2459 9.3604 26.9295 1.0929 0.7280 -20.0351 2.1982 -9.2673 -26.6350 0.0000 0.0000 0.0000 23.7733 -4.9192 3.6822 0.0000 0.0000 -0.0000 0.1454 -10.4026 -12.2300 -0.3015 3.5307 -9.7598 2.9449 1.5936 2.1460 0.6903 2.2437 -1.5246 -1.0376 1.0707 -2.6847 4.1200 3.5646 -23.0764 0.5654 3.3858 27.0796 0.1311 2.0133 12.9799 -0.0000 0.0000 0.0000 -85.2906 5.2029 38.0462 17.9715 -28.1206 -4.5358 -0.0000 0.0000 -28.7281 35.3081 53.3891 29.6190 -7.1250 0.0000 -0.0000 -75.0138 85.4784 -70.5889 -0.0000 0.0000 0.0000 86.7967 -1.6268 26.2886 -13.2620 21.6699 -2.5492 0.0000 -0.0000 -10.6333 -26.1044 18.8304 -8.9871 7.1250 -0.0000 -0.0000 1.3516 -9.1898 1.1187
6.0385 17.4528 -11.6295 -4.3042 2.2465 3.9545 0.0000 0.0000 0.0000 -11.0377 -12.6628 -9.1956 2.2465 9.3617 26.9335 1.0911 0.7265 -20.0178 2.2918 -9.4492 -27.2108 0.0000 0.0000 0.0000 23.7490 -4.9264 3.7007 0.0000 -0.0000 0.0000 0.1372 -10.3032 -12.2253 -0.2895 3.4601 -9.5623 2.8802 1.5778 2.1600 0.7285 2.2223 -1.5323 -0.9620 1.0612 -2.7051 4.1240 3.5849 -23.0256 0.5091 3.4346 27.1063 0.1168 2.0275 12.9825 0.0000 0.0000 0.0000 -85.3549 5.1990 37.9334 17.9576 -28.1028 -4.5292 -0.0000 0.0000 -28.6720 35.4833 53.3003 29.7502 -7.1250 0.0000 -0.0000 -74.3324 85.5590 -69.9998 0.0000 0.0000 0.0000 86.7245 -1.5712 26.1258 -13.2442 21.6439 -2.5426 0.0000 -0.0000 -10.2987 -25.8238 19.3365 -9.1035 7.1250 -0.0000 -0.0000 1.5855 -8.6885 1.3284
6.0389 17.4515 -11.6240 -4.2959 2.2364 3.9659 0.0000 0.0000 0.0000 -11.0426 -12.5250 -9.2474 2.2491 9.3668 26.9496 1.0926 0.6499 -20.0021 2.3437 -9.5480 -27.5250 0.0000 0.0000 0.0000 23.7221 -4.9237 3.7210 0.0000 0.0000 -0.0000 0.1262 -10.2047 -12.2783 -0.2785 3.3941 -9.3778 2.8344 1.5706 2.1470 0.7430 2.2110 -1.5313 -0.9208 1.0567 -2.6994 4.0478 3.5807 -23.0714 0.6054 3.4250 27.2440 0.1677 2.0297 13.0443 0.0000 0.0000 0.0000 -85.3978 5.1867 37.8325 17.9439 -28.0853 -4.5228 -0.0000 0.0000 -28.5876 35.5696 53.2955 29.8273 -7.1250 0.0000 -0.0000 -74.4903 85.5957 -70.1913 0.0000 0.0000 0.0000 86.6503 -1.5684 26.1032 -13.2965 21.7201 -2.5620 0.0000 -0.0000 -10.0305 -25.6223 19.8750 -9.2605 7.1250 -0.0000 -0.0000 1.7718 -8.1411 1.5038
6.0394 17.4510 -11.6173 -4.3253 2.2190 3.9840 0.0000 0.0000 0.0000 -11.0116 -12.4996 -9.2541 2.2512 9.3709 26.9625 1.0973 0.5660 -20.0132 2.3226 -9.5080 -27.3978 0.0000 0.0000 0.0000 23.7427 -4.9074 3.7338 0.0000 0.0000 -0.0000 0.1180 -10.1413 -12.3358 -0.2615 3.2900 -9.0873 2.8870 1.5800 2.1161 0.7304 2.2235 -1.5186 -0.9623 1.0624 -2.6661 3.9869 3.5417 -23.2131 0.7395 3.3419 27.4286 0.2199 2.0068 13.1436 -0.0000 -0.0000 0.0000 -85.3655 5.1757 37.7672 17.9567 -28.1017 -4.5288 -0.0000 0.0000 -28.4760 35.3893 53.3471 29.6795 -7.1250 0.0000 -0.0000 -74.6897 85.5159 -70.3079 -0.0000 -0.0000 0.0000 86.6438 -1.5742 26.1834 -13.4204 21.9001 -2.6080 0.0000 -0.0000 -9.9055 -25.6960 19.3301 -9.0498 7.1250 -0.0000 -0.0000 1.6673 -8.7169 1.3960
6.0392 17.4500 -11.6115 -4.3247 2.2022 3.9921 0.0000 0.0000 0.0000 -11.0112 -12.4306 -9.2670 2.2515 9.3715 26.9644 1.0978 0.5395 -20.0079 2.3553 -9.5699 -27.5947 0.0000 0.0000 0.0000 23.7304 -4.8967 3.7530 0.0000 -0.0000 0.0000 0.1124 -10.0823 -12.3508 -0.2444 3.1813 -8.7840 2.8807 1.5875 2.1128 0.7169 2.2323 -1.5025 -0.9726 1.0672 -2.6469 3.9640 3.5169 -23.3243 0.8377 3.2771 27.5386 0.2539 1.9906 13.2084 -0.0000 -0.0000 0.0000 -85.3396 5.1646 37.6618 17.9810 -28.1328 -4.5403 -0.0000 0.0000 -28.3274 35.0306 53.3474 29.3531 -7.1250 0.0000 -0.0000 -73.8255 85.3646 -69.3101 -0.0000 -0.0000 0.0000 86.6775 -1.5490 26.2077 -13.5097 22.0294 -2.6414 0.0000 -0.0000 -9.7772 -25.7349 18.6206 -8.7497 7.1250 -0.0000 -0.0000 1.5696 -9.4783 1.2902
6.0383 17.4493 -11.6079 -4.2848 2.1817 3.9814 0.0000 0.0000 0.0000 -11.0458 -12.2810 -9.2915 2.2506 9.3697 26.9587 1.0975 0.4633 -19.9775 2.3927 -9.6401 -27.8190 0.0000 0.0000 0.0000 23.6853 -4.8909 3.7847 0.0000 0.0000 -0.0000 0.1122 -10.0686 -12.3315 -0.2384 3.1425 -8.6758 2.7922 1.5801 2.1538 0.7052 2.2204 -1.4870 -0.9358 1.0628 -2.6572 3.9775 3.5476 -23.3450 0.8758 3.3026 27.5486 0.2717 2.0085 13.2169 0.0000 0.0000 0.0000 -85.3224 5.1420 37.5928 18.0072 -28.1664 -4.5526 -0.0000 0.0000 -28.3090 35.0024 53.4021 29.3449 -7.1250 0.0000 -0.0000 -74.4308 85.3491 -69.8883 0.0000 0.0000 0.0000 86.6961 -1.5139 26.2479 -13.5453 22.0809 -2.6548 0.0000 -0.0000 -9.6722 -25.5520 18.8102 -8.7633 7.1250 -0.0000 -0.0000 1.7072 -9.3030 1.4094
6.0386 17.4492 -11.6045 -4.2722 2.1969 3.9590 0.0000 0.0000 0.0000 -11.0602 -12.2353 -9.2615 2.2476 9.3639 26.9404 1.1019 0.3972 -19.9930 2.3703 -9.5982 -27.6851 0.0000 0.0000 0.0000 23.6798 -4.9199 3.8115 0.0000 -0.0000 0.0000 0.1171 -10.1260 -12.3293 -0.2357 3.1245 -8.6255 2.7797 1.5750 2.2102 0.6795 2.2143 -1.4739 -0.9565 1.0596 -2.6751 4.0119 3.5748 -23.2950 0.8655 3.3344 27.4752 0.2658 2.0242 13.1780 -0.0000 -0.0000 0.0000 -85.2544 5.0982 37.6610 18.0138 -28.1748 -4.5557 -0.0000 0.0000 -28.3572 35.1326 53.4695 29.4847 -7.1250 0.0000 -0.0000 -75.5747 85.3983 -71.0601 -0.0000 -0.0000 0.0000 86.7022 -1.5064 26.3023 -13.5761 22.1254 -2.6664 0.0000 -0.0000 -9.5891 -25.3019 19.1050 -8.7955 7.1250 -0.0000 -0.0000 1.8986 -9.0256 1.5781
